<svg xmlns="http://www.w3.org/2000/svg" xmlns:xlink="http://www.w3.org/1999/xlink" width="42" height="40" viewBox="0 0 42 40"><defs><path id="a" d="M588.95 876.61a2.34 2.34 0 1 1-4.69 0 2.34 2.34 0 0 1 4.69 0zm1.26 0a3.61 3.61 0 0 0-7.21 0 3.61 3.61 0 0 0 7.21 0z"/><path id="b" d="M604.64 875.95a1.7 1.7 0 0 1-1.69 1.69 1.7 1.7 0 0 1-1.69-1.69c0-.93.76-1.69 1.69-1.69.93 0 1.69.76 1.69 1.69zm1.26 0a2.95 2.95 0 1 0-5.9 0 2.95 2.95 0 0 0 5.9 0z"/><path id="c" d="M597.95 868.11a2.85 2.85 0 0 1-5.69 0 2.86 2.86 0 0 1 2.85-2.85 2.85 2.85 0 0 1 2.84 2.85zm1.26 0a4.1 4.1 0 1 0-8.22 0 4.1 4.1 0 0 0 8.22 0z"/><path id="d" d="M611.7 886.85v-2.02h7.69a1 1 0 0 1 1.01 1.01 1 1 0 0 1-1.01 1.01zm2.79 9.26a3.2 3.2 0 0 1-1.57 1.87.64.64 0 0 0-.33.56v1.85a.98.98 0 0 1-1.97 0v-1.4a.63.63 0 0 0-.63-.63h-18.25a.63.63 0 0 0-.63.63v1.4a.98.98 0 0 1-1.97 0v-1.82a.61.61 0 0 0-.34-.56 3.26 3.26 0 0 1-1.63-1.9l-2.57-8h13.78v4.93c0 .35.28.63.63.63h12.06c.35 0 .63-.28.63-.63v-4.93h5.36zm-32.21-11.28h16.1v2.02h-16.1c-.56 0-1.02-.45-1.02-1.01s.46-1.01 1.02-1.01zm17.36-1.11c0-.33.28-.6.61-.6h9.59c.33 0 .6.27.6.6v8.69h-10.8zm17.96-.16v-16.23a4.34 4.34 0 0 0-8.67 0v1.39c0 .35.28.64.63.64s.63-.29.63-.64v-1.39a3.08 3.08 0 0 1 6.15 0v16.23h-4.65a1.87 1.87 0 0 0-1.85-1.71h-9.59c-.97 0-1.77.76-1.85 1.71h-16.12a2.28 2.28 0 1 0 0 4.55h1l2.69 8.39c.33 1.02 1 1.88 1.91 2.44v1.45a2.25 2.25 0 0 0 2.24 2.25 2.25 2.25 0 0 0 2.25-2.25v-.77h16.99v.77a2.24 2.24 0 1 0 4.49 0v-1.49a4.45 4.45 0 0 0 1.84-2.4l2.7-8.39h1a2.28 2.28 0 1 0 0-4.55z"/></defs><g transform="translate(-580 -863)"><use fill="#a6825e" xlink:href="#a"/><use fill="#a6825e" xlink:href="#b"/><g><use fill="#a6825e" xlink:href="#c"/></g><g><use fill="#a6825e" xlink:href="#d"/></g></g></svg>