<svg xmlns="http://www.w3.org/2000/svg" xmlns:xlink="http://www.w3.org/1999/xlink" width="48" height="35" viewBox="0 0 48 35"><defs><path id="a" d="M1113 1023v-35h2v35z"/><path id="b" d="M1146 1023v-35h2v35z"/><path id="c" d="M1106 1013v-2h47v2z"/><path id="d" d="M1147.98 1018H1146c0-2.21.66-3.96 1.95-5.19 2.05-1.95 4.93-1.81 5.05-1.81l-.11 2c-.02 0-2.17-.09-3.59 1.28-.87.84-1.32 2.09-1.32 3.72z"/><path id="e" d="M1115 1018h-1.98c0-1.64-.45-2.89-1.33-3.73-1.41-1.35-3.56-1.27-3.58-1.27l-.11-2c.12 0 3-.14 5.05 1.81 1.29 1.23 1.95 2.98 1.95 5.19z"/><path id="f" d="M1129.89 1005c-2.4 0-8.18-.43-12.34-4.25-3.02-2.77-4.55-6.72-4.55-11.75h1.89c0 4.48 1.32 7.97 3.94 10.37 4.67 4.28 11.94 3.73 12.01 3.72l.16 1.87c-.07.01-.47.04-1.11.04z"/><path id="g" d="M1130.11 1005c-.64 0-1.04-.03-1.11-.04l.16-1.87c.07.01 7.37.54 12.02-3.73 2.61-2.4 3.93-5.88 3.93-10.36h1.89c0 5.03-1.53 8.98-4.55 11.75-4.16 3.82-9.94 4.25-12.34 4.25z"/><path id="h" d="M1153.06 1003c-4.68-2.76-7.06-7.47-7.06-14h1.88c0 5.78 2.06 9.93 6.12 12.32z"/><path id="i" d="M1106.94 1002l-.94-1.68c4.06-2.39 6.12-6.54 6.12-12.32h1.88c0 6.53-2.38 11.24-7.06 14z"/><path id="j" d="M1119 1011v-10h2v10z"/><path id="k" d="M1139 1011v-10h2v10z"/><path id="l" d="M1126 1011v-7h2v7z"/><path id="m" d="M1132 1011v-7h2v7z"/></defs><g transform="translate(-1106 -988)"><use fill="#dcc39a" xlink:href="#a"/><use fill="#dcc39a" xlink:href="#b"/><use fill="#dcc39a" xlink:href="#c"/><use fill="#dcc39a" xlink:href="#d"/><use fill="#dcc39a" xlink:href="#e"/><use fill="#dcc39a" xlink:href="#f"/><use fill="#dcc39a" xlink:href="#g"/><g><use fill="#dcc39a" xlink:href="#h"/></g><g><use fill="#dcc39a" xlink:href="#i"/></g><g><use fill="#dcc39a" xlink:href="#j"/></g><g><use fill="#dcc39a" xlink:href="#k"/></g><g><use fill="#dcc39a" xlink:href="#l"/></g><g><use fill="#dcc39a" xlink:href="#m"/></g></g></svg>