<svg xmlns="http://www.w3.org/2000/svg" xmlns:xlink="http://www.w3.org/1999/xlink" width="62" height="41" viewBox="0 0 62 41"><defs><path id="a" d="M1012.12 898.08l-.34 4.47h-.89l-.34-4.47h-1.44v-.9H1006V886h40v11.18h-3.11v.9h-1.44l-.34 4.47h-.89l-.34-4.47zm19.21-2.24v-8.5h.45v4.03h13.33v-4.48h-38.22v9.4h38.22v-4.47h-13.33v4.02zm-.44 0h-11.11v-8.5h11.11zm-11.56 0h-12v-8.5h12z"/><path id="b" d="M1002 878.37c0-.2.17-.37.38-.37h2.69c.21 0 .38.17.38.37v6.16c0 .2-.17.37-.38.37h-2.69a.38.38 0 0 1-.38-.37zm1.03 5.68v.39h1.38v-.39z"/><path id="c" d="M1003 903.15V885h.69v18.15z"/><path id="d" d="M1000.34 902.26a.84.84 0 0 1 .56-.26h5.1c.19 0 .44.12.56.26l.34.43h-6.9z"/><path id="e" d="M1047 878.37c0-.2.17-.37.38-.37h2.69c.21 0 .38.17.38.37v6.16c0 .2-.17.37-.38.37h-2.69a.38.38 0 0 1-.38-.37zm1.03 5.68v.39h1.38v-.39z"/><path id="f" d="M1048 903.15V885h.69v18.15z"/><path id="g" d="M1045.34 902.26a.84.84 0 0 1 .56-.26h5.1c.19 0 .44.12.56.26l.34.43h-6.9z"/><path id="h" d="M1057 902.17V867h.69v35.17z"/><path id="i" d="M1053.47 902.24c.13-.13.4-.24.59-.24h6.85c.18 0 .45.11.59.24l.47.45H1053z"/><path id="j" d="M1057.48 867.76L1053 865h8.97z"/><path id="k" d="M1057.02 864.34c-.11-.55.25-1.1.79-1.22l.11-.02c.02 0 .08-.1.13-.1s.11.1.13.1l.1.02c.55.12.91.67.81 1.22l-.48 2.56a.3.3 0 0 1-.29.24h-.52a.3.3 0 0 1-.29-.24z"/><path id="l" d="M1022.29 885.97v-1.41H1010V867h31.62v17.56h-12.3v1.41h5.27v.35h-17.56v-.35zm-11.24-17.92v15.46h29.51v-15.46z"/></defs><g transform="translate(-1000 -862)"><use fill="#ac8a68" xlink:href="#a"/><use fill="#ac8a68" xlink:href="#b"/><use fill="#ac8a68" xlink:href="#c"/><use fill="#ac8a68" xlink:href="#d"/><use fill="#ac8a68" xlink:href="#e"/><use fill="#ac8a68" xlink:href="#f"/><g><use fill="#ac8a68" xlink:href="#g"/></g><g><use fill="#ac8a68" xlink:href="#h"/></g><g><use fill="#ac8a68" xlink:href="#i"/></g><g><use fill="#ac8a68" xlink:href="#j"/></g><g><use fill="#fff" fill-opacity="0" stroke="#ac8a68" stroke-miterlimit="50" stroke-width=".3" xlink:href="#k"/></g><g><use fill="#ac8a68" xlink:href="#l"/></g></g></svg>