<svg xmlns="http://www.w3.org/2000/svg" xmlns:xlink="http://www.w3.org/1999/xlink" width="43" height="40" viewBox="0 0 43 40"><defs><path id="a" d="M620.63 1430.66v7.22a3.06 3.06 0 0 1-3.06 3.06h-33.51a3.06 3.06 0 0 1-3.06-3.06v-7.22a3.06 3.06 0 0 1 3.06-3.05h23.79v-15.52a2.12 2.12 0 0 1-1.29-1.96 2.12 2.12 0 1 1 4.25 0c0 .88-.53 1.64-1.29 1.96v15.52h8.05a3.06 3.06 0 0 1 3.06 3.05zm-1.67 0c0-.77-.62-1.39-1.39-1.39h-33.51c-.77 0-1.39.62-1.39 1.39v7.22c0 .77.62 1.39 1.39 1.39h33.51c.77 0 1.39-.62 1.39-1.39z"/><path id="b" d="M589.67 1434.34a2.34 2.34 0 0 1-4.67 0 2.34 2.34 0 0 1 2.34-2.34 2.34 2.34 0 0 1 2.33 2.34zm-1.11 0a1.23 1.23 0 1 0-2.45 0 1.23 1.23 0 0 0 2.45 0z"/><path id="c" d="M594.67 1434.34a2.34 2.34 0 0 1-4.67 0 2.34 2.34 0 0 1 2.34-2.34 2.34 2.34 0 0 1 2.33 2.34zm-1.11 0a1.23 1.23 0 1 0-2.45 0 1.23 1.23 0 0 0 2.45 0z"/><path id="d" d="M600.67 1434.34a2.34 2.34 0 0 1-4.67 0 2.34 2.34 0 0 1 2.34-2.34 2.34 2.34 0 0 1 2.33 2.34zm-1.11 0a1.23 1.23 0 1 0-2.45 0 1.23 1.23 0 0 0 2.45 0z"/><path id="e" d="M618.4 1417.43l.81.81a12.5 12.5 0 0 0-.4-17.24l-.81.81a11.35 11.35 0 0 1 .4 15.62z"/><path id="f" d="M616.39 1415.91l.81.82a10.02 10.02 0 0 0-.39-13.73l-.81.81a8.85 8.85 0 0 1 .39 12.1z"/><path id="g" d="M613.38 1414.48l.82.81a7.59 7.59 0 0 0-.39-10.29l-.81.81a6.43 6.43 0 0 1 .38 8.67z"/><path id="h" d="M598.46 1417.43a11.35 11.35 0 0 1-.39-15.62l-.81-.81a12.5 12.5 0 0 0 .39 17.24z"/><path id="i" d="M599.92 1416.73l.81-.81v-.01a8.87 8.87 0 0 1-.39-12.1l-.81-.81a10.02 10.02 0 0 0 .39 13.73z"/><path id="j" d="M602.21 1415.29l.81-.81a6.44 6.44 0 0 1-.38-8.67l-.81-.81a7.58 7.58 0 0 0 .38 10.29z"/></defs><g transform="translate(-580 -1401)"><use fill="#ac8a68" xlink:href="#a"/><use fill="#ac8a68" xlink:href="#b"/><use fill="#ac8a68" xlink:href="#c"/><use fill="#ac8a68" xlink:href="#d"/><use fill="#ac8a68" xlink:href="#e"/><g><use fill="#ac8a68" xlink:href="#f"/></g><g><use fill="#ac8a68" xlink:href="#g"/></g><g><use fill="#ac8a68" xlink:href="#h"/></g><g><use fill="#ac8a68" xlink:href="#i"/></g><g><use fill="#ac8a68" xlink:href="#j"/></g></g></svg>