<svg xmlns="http://www.w3.org/2000/svg" xmlns:xlink="http://www.w3.org/1999/xlink" width="44" height="40" viewBox="0 0 44 40"><defs><path id="a" d="M1043.32 1137.97a3.05 3.05 0 0 1-3.03 3.03h-37.26a3.05 3.05 0 0 1-3.03-3.03 3.05 3.05 0 0 1 3.03-3.03h.22a18.4 18.4 0 0 1 17.69-17.69v-3.69h-4.12a.68.68 0 0 1-.72-.72c0-.43.29-.72.72-.72h9.68c.43 0 .72.29.72.72s-.29.72-.72.72h-4.12v3.69a18.4 18.4 0 0 1 17.69 17.69h.22a3.05 3.05 0 0 1 3.03 3.03zm-38.63-3.03h33.94a17.05 17.05 0 0 0-16.97-16.25c-9.1 0-16.53 7.22-16.97 16.25zm37.19 3.03a1.6 1.6 0 0 0-1.59-1.59h-37.26a1.6 1.6 0 0 0-1.59 1.59c0 .86.73 1.59 1.59 1.59h37.26a1.6 1.6 0 0 0 1.59-1.59zm-9.17-23.61c-.22-.36-.07-.8.29-1.01l4.76-2.75a.74.74 0 0 1 1.01.29c.22.36.07.8-.29 1.01l-4.76 2.75c-.15.07-.22.07-.36.07a.77.77 0 0 1-.65-.36zm-28.16-3.47c.22-.36.65-.43 1.01-.29l4.76 2.75c.37.21.44.65.29 1.01a.77.77 0 0 1-.65.36c-.14 0-.21 0-.36-.07l-4.76-2.75c-.36-.21-.44-.65-.29-1.01zm16.39-3.61v-5.56c0-.43.29-.72.72-.72s.72.29.72.72v5.56c0 .43-.29.72-.72.72a.72.72 0 0 1-.72-.72z"/></defs><g transform="translate(-1000 -1101)"><use fill="#ac8a68" xlink:href="#a"/></g></svg>