<svg xmlns="http://www.w3.org/2000/svg" xmlns:xlink="http://www.w3.org/1999/xlink" width="35" height="35" viewBox="0 0 35 35"><defs><path id="a" d="M1257.19 1005.91l-2.12 3.24.27 3.92c0 .53-.27 1.06-.75 1.27l-3.5 1.75-1.75 3.5c-.26.48-.74.8-1.27.75l-3.87-.22-3.24 2.12a1.2 1.2 0 0 1-.74.22c-.26 0-.53-.06-.74-.22l-3.24-2.12-3.87.22c-.53 0-1.06-.27-1.27-.75l-1.75-3.5-3.5-1.75c-.48-.26-.8-.74-.74-1.27l.21-3.87-2.12-3.24a1.45 1.45 0 0 1 0-1.48l2.12-3.24-.21-3.87c0-.53.26-1.06.74-1.27l3.5-1.75 1.75-3.5c.27-.48.74-.8 1.27-.74l3.87.21 3.24-2.12a1.45 1.45 0 0 1 1.48 0l3.24 2.12 3.87-.27c.53 0 1.06.27 1.27.75l1.75 3.5 3.5 1.75c.48.26.8.74.75 1.27l-.22 3.87 2.12 3.24c.27.47.27 1-.05 1.48zm-2.65-.74l-1.91-2.92a1.36 1.36 0 0 1-.21-.79l.16-3.5-3.08-1.54a1.06 1.06 0 0 1-.58-.58l-1.54-3.08-3.45.21c-.26 0-.53-.05-.79-.21l-2.92-1.91-2.92 1.91c-.21.16-.53.21-.79.21l-3.5-.16-1.54 3.08c-.1.26-.32.48-.58.58l-3.08 1.54.21 3.45c0 .26-.05.53-.21.79l-1.91 2.92 1.91 2.92c.16.21.21.53.21.79l-.15 3.5 3.07 1.54a1 1 0 0 1 .58.58l1.54 3.08 3.45-.21h.05c.27 0 .53.05.74.21l2.92 1.91 2.92-1.91c.21-.16.53-.21.79-.21l3.5.15 1.54-3.07c.11-.27.32-.48.58-.58l3.08-1.54-.21-3.45c0-.26.05-.53.21-.79z"/><path id="b" d="M1232 1001.19a4.2 4.2 0 0 1 4.19-4.19 4.2 4.2 0 0 1 4.19 4.19 4.2 4.2 0 0 1-4.19 4.19 4.23 4.23 0 0 1-4.19-4.19zm2.65-.05a1.54 1.54 0 1 0 3.08-.02 1.54 1.54 0 0 0-3.08.02z"/><path id="c" d="M1248.38 1010.19a4.23 4.23 0 0 1-4.19 4.19 4.2 4.2 0 0 1-4.19-4.19 4.2 4.2 0 0 1 4.19-4.19 4.23 4.23 0 0 1 4.19 4.19zm-2.65.05a1.54 1.54 0 1 0-3.08 0 1.54 1.54 0 0 0 3.08 0z"/><path id="d" d="M1234.76 1013.07l-1.88-1.88 13.61-13.6 1.88 1.87z"/></defs><g transform="translate(-1223 -988)"><use fill="#dcc39a" xlink:href="#a"/><use fill="#dcc39a" xlink:href="#b"/><g><use fill="#dcc39a" xlink:href="#c"/></g><g><use fill="#dcc39a" xlink:href="#d"/></g></g></svg>