<svg xmlns="http://www.w3.org/2000/svg" xmlns:xlink="http://www.w3.org/1999/xlink" width="43" height="35" viewBox="0 0 43 35"><defs><path id="a" d="M1360.39 1008.28c.45.46.45 1.2 0 1.66-.45.45-1.18.45-1.63 0a11.52 11.52 0 0 0-16.51 0c-.23.22-.52.34-.82.34-.29 0-.59-.12-.81-.34a1.19 1.19 0 0 1 0-1.66 13.8 13.8 0 0 1 9.88-4.14c3.74 0 7.25 1.47 9.89 4.14zm5.56-5.63c.45.46.45 1.2 0 1.65a1.14 1.14 0 0 1-1.63 0 19.28 19.28 0 0 0-13.82-5.79 19.28 19.28 0 0 0-13.82 5.79c-.45.46-1.18.46-1.63 0a1.18 1.18 0 0 1 0-1.65 21.56 21.56 0 0 1 15.45-6.48c5.84 0 11.33 2.3 15.45 6.48zm5.71-4.13a1.14 1.14 0 0 1-1.63 0 27.28 27.28 0 0 0-19.53-8.19 27.28 27.28 0 0 0-19.53 8.19c-.45.46-1.18.46-1.63 0a1.18 1.18 0 0 1 0-1.65 29.55 29.55 0 0 1 21.16-8.87c7.99 0 15.51 3.15 21.16 8.87.45.46.45 1.2 0 1.65zm-16.17 19.44a5.02 5.02 0 0 1-4.98 5.04 5.01 5.01 0 0 1-4.98-5.04 5.01 5.01 0 0 1 4.98-5.04 5.02 5.02 0 0 1 4.98 5.04zm-2.31 0a2.7 2.7 0 0 0-2.67-2.71 2.7 2.7 0 0 0-2.68 2.71 2.7 2.7 0 0 0 2.68 2.71 2.7 2.7 0 0 0 2.67-2.71z"/></defs><g transform="translate(-1329 -988)"><use fill="#dcc39a" xlink:href="#a"/></g></svg>