<svg xmlns="http://www.w3.org/2000/svg" xmlns:xlink="http://www.w3.org/1999/xlink" width="142" height="30" viewBox="0 0 142 30"><defs><path id="a" d="M525.3 3091.68a3.66 3.66 0 0 1-3.65 3.67 3.66 3.66 0 0 1-3.65-3.67 3.66 3.66 0 0 1 3.65-3.68 3.66 3.66 0 0 1 3.65 3.68"/><path id="b" d="M553.98 3091.57s-13.32 7.56-17.47 7.56c-4.15 0-9.51-3.39-9.51-7.56 0-4.18 5.36-7.57 9.51-7.57 4.15 0 17.47 7.57 17.47 7.57"/><path id="c" d="M586 3091.68a3.66 3.66 0 0 0 3.65 3.67 3.66 3.66 0 0 0 3.65-3.67 3.66 3.66 0 0 0-3.65-3.68 3.66 3.66 0 0 0-3.65 3.68"/><path id="d" d="M557 3091.57s13.32 7.56 17.47 7.56c4.15 0 9.51-3.39 9.51-7.56 0-4.18-5.36-7.57-9.51-7.57-4.15 0-17.47 7.57-17.47 7.57"/><path id="e" d="M561.78 3082.93a5.92 5.92 0 0 1-5.89 5.93 5.92 5.92 0 0 1-5.89-5.93 5.9 5.9 0 0 1 5.89-5.93 5.9 5.9 0 0 1 5.89 5.93"/><path id="f" d="M561.78 3099.93a5.9 5.9 0 0 0-5.89-5.93 5.9 5.9 0 0 0-5.89 5.93 5.92 5.92 0 0 0 5.89 5.93 5.92 5.92 0 0 0 5.89-5.93"/><path id="g" d="M484 3093v-1h34v1z"/><path id="h" d="M592 3093v-1h34v1z"/></defs><g transform="translate(-484 -3077)" fill="#ffffff"><use xlink:href="#a"/><use xlink:href="#b"/><use xlink:href="#c"/><use xlink:href="#d"/><use xlink:href="#e"/><use xlink:href="#f"/><use xlink:href="#g"/><use xlink:href="#h"/></g></svg>