<svg xmlns="http://www.w3.org/2000/svg" xmlns:xlink="http://www.w3.org/1999/xlink" width="32" height="24" viewBox="0 0 32 24"><defs><path id="a" d="M695.31 530v18a3 3 0 0 1-3 3H667a3 3 0 0 1-3-3v-18a3 3 0 0 1 3-3h25.31a3 3 0 0 1 3 3zm-4.22 1.1a.52.52 0 0 0-.74-.03l-10.69 9.66-10.7-9.66a.52.52 0 0 0-.74.03.53.53 0 0 0 .04.74l8.18 7.39-7.49 7.26a.52.52 0 0 0 .37.89c.13 0 .26-.05.36-.14l7.53-7.31 2.1 1.89.01.01c.04.04.09.07.14.09l.03.01a.47.47 0 0 0 .33 0l.03-.01c.05-.02.1-.05.14-.09l.02-.01 2.09-1.89 7.53 7.31c.1.09.23.14.36.14a.52.52 0 0 0 .37-.89l-7.49-7.26 8.18-7.39a.52.52 0 0 0 .04-.74z"/></defs><g transform="translate(-664 -527)"><use fill="#2c2625" xlink:href="#a"/></g></svg>