<svg xmlns="http://www.w3.org/2000/svg" xmlns:xlink="http://www.w3.org/1999/xlink" width="25" height="24" viewBox="0 0 25 24"><defs><path id="a" d="M850.44 527l-2.9 2.07h5.81zm-7.7 3.26v8.29l7.7 5.51 7.71-5.51v-8.29zm-1.18 3.09l-3.05 2.18 3.05 2.17zm17.77 0v4.35l3.05-2.17zm-14.22.17h10.67c.33 0 .59.26.59.59 0 .33-.26.59-.59.59h-10.67a.58.58 0 0 1-.59-.59c0-.33.26-.59.59-.59zm0 2.96h10.67a.6.6 0 0 1 .59.59.6.6 0 0 1-.59.6h-10.67a.6.6 0 0 1-.59-.6.6.6 0 0 1 .59-.59zm-7.11.13v14.09h24.89v-14.09l-3.71 2.65a.36.36 0 0 1-.1.07l-8.29 5.93-.02.01a.47.47 0 0 1-.1.05l-.04.02h-.02l-.04.02h-.01l-.05.01H850.44a.57.57 0 0 1-.29-.08l-.03-.01-.02-.02-8.29-5.93-.03-.02z"/></defs><g transform="translate(-838 -527)"><use fill="#2c2625" xlink:href="#a"/></g></svg>