<svg xmlns="http://www.w3.org/2000/svg" xmlns:xlink="http://www.w3.org/1999/xlink" width="190" height="31" viewBox="0 0 190 31"><defs><path id="a" d="M693 3085c0 1.1.9 2 2 2a2 2 0 0 0 2-2 2 2 0 0 0-2-2 2 2 0 0 0-2 2"/><path id="b" d="M719 3085c0 1.1.9 2 2 2a2 2 0 0 0 2-2 2 2 0 0 0-2-2 2 2 0 0 0-2 2"/><path id="c" d="M692.31 3087.69a4.5 4.5 0 0 1 0-6.38 4.51 4.51 0 1 1 0 6.38zm-3.31-3.19a6.5 6.5 0 1 0 12.98.02 6.5 6.5 0 0 0-12.98-.02z"/><path id="d" d="M718.31 3087.69a4.5 4.5 0 0 1 0-6.38 4.51 4.51 0 1 1 0 6.38zm-3.31-3.19a6.5 6.5 0 1 0 12.98.02 6.5 6.5 0 0 0-12.98-.02z"/><path id="e" d="M721.62 3095.39a10.72 10.72 0 0 1-10.76-10.66c0-5.88 4.82-10.67 10.76-10.67 5.93 0 10.75 4.79 10.75 10.67s-4.82 10.66-10.75 10.66zm-26.23 0a10.72 10.72 0 0 1-10.76-10.66c0-5.88 4.82-10.67 10.76-10.67 5.93 0 10.75 4.79 10.75 10.67s-4.82 10.66-10.75 10.66zm38.93-23.35h-8.79a5.66 5.66 0 0 0-.44-.11c-.48-.75-3.75-4.93-16.82-4.93-14.34 0-16.88 5.04-16.88 5.04h-9.17c1.17 1.16 1.99 3.15 2.48 4.72a13.12 13.12 0 0 0-2.7 7.97c0 7.32 6 13.27 13.39 13.27a13.4 13.4 0 0 0 10.21-4.71l3.04 4.22 2.62-4.39a13.4 13.4 0 0 0 10.36 4.88c7.38 0 13.38-5.95 13.38-13.27 0-3.18-1.13-6.1-3.02-8.39.5-1.49 1.28-3.24 2.34-4.3z"/><path id="f" d="M708.45 3069c9.12 0 12.55 3.75 12.55 3.75s-9.75-1.61-13 10.25c-3.25-11.86-13-10.25-13-10.25s3.43-3.75 12.55-3.75h.9"/><path id="g" d="M708.45 3069c9.12 0 12.55 3.75 12.55 3.75s-9.75-1.61-13 10.25c-3.25-11.86-13-10.25-13-10.25s3.43-3.75 12.55-3.75z"/><path id="h" d="M744.49 3075v3.42H748v1.97h-3.51v7.69c0 1.77.47 2.77 1.84 2.77.67 0 1.06-.06 1.42-.18l.11 1.98c-.47.17-1.23.35-2.17.35a3.38 3.38 0 0 1-2.65-1.09c-.67-.8-.95-2.06-.95-3.74v-7.78H740v-1.97h2.09v-2.62l2.4-.8"/><path id="i" d="M750.12 3082.91c0-1.73-.03-3.21-.12-4.58h2.22l.11 2.88h.09c.63-1.97 2.19-3.21 3.89-3.21.26 0 .46.03.69.09v2.49c-.29-.03-.55-.06-.89-.06-1.79 0-3.06 1.42-3.4 3.39-.06.39-.09.82-.09 1.27v7.82h-2.53l.03-10.09"/><path id="j" d="M759.35 3078.89h2.33V3093h-2.33zm-.35-4.26c0-.9.61-1.63 1.51-1.63.91 0 1.49.73 1.49 1.63 0 .91-.58 1.66-1.51 1.66h-.03c-.88 0-1.46-.75-1.46-1.66z"/><path id="k" d="M768.78 3084.18c0-.32.09-.7.15-1.04a4.22 4.22 0 0 1 4.05-3.12c2.82 0 4.33 2.4 4.33 5.2 0 3.2-1.63 5.39-4.45 5.39a4.05 4.05 0 0 1-3.96-2.97 3.95 3.95 0 0 1-.12-1.04zm-2.66-1.3V3098h2.66v-7.59h.06c.88 1.38 2.54 2.19 4.51 2.19 3.41 0 6.65-2.48 6.65-7.5 0-4.24-2.66-7.1-6.23-7.1-2.36 0-4.11.98-5.17 2.71h-.06l-.15-2.39H766c.09 1.32.12 2.77.12 4.56z"/><path id="l" d="M789.35 3087.84c0 .27-.03.57-.11.83a3.5 3.5 0 0 1-3.4 2.4c-1.25 0-2.33-.77-2.33-2.49 0-2.78 3.1-3.29 5.84-3.23zm2.45 1.4v-5.37c0-2.88-1.03-5.87-5.27-5.87-1.74 0-3.42.5-4.56 1.25l.57 1.74a6.48 6.48 0 0 1 3.62-1.06c2.82-.03 3.13 2.13 3.13 3.32v.29c-5.33-.03-8.29 1.87-8.29 5.34a4 4 0 0 0 4.22 4.12 5.07 5.07 0 0 0 4.22-2.13h.08l.23 1.8H792c-.14-.97-.2-2.19-.2-3.43z"/><path id="m" d="M804.38 3086.77c0 .41-.03.75-.11 1.1a3.81 3.81 0 0 1-3.67 3.06c-2.67 0-4.07-2.36-4.07-5.24 0-3.09 1.54-5.42 4.13-5.42a3.71 3.71 0 0 1 3.61 2.94c.08.35.11.76.11 1.11zm2.51-14.77h-2.51v8.39h-.05c-.6-1.11-2.02-2.13-4.16-2.13-3.33 0-6.2 2.86-6.17 7.57 0 4.29 2.59 7.17 5.92 7.17a5.02 5.02 0 0 0 4.66-2.77h.06l.11 2.45H807c-.09-.96-.11-2.39-.11-3.64z"/><path id="n" d="M811.67 3078l2.69 7.84c.46 1.3.83 2.46 1.11 3.61h.09c.31-1.15.71-2.31 1.16-3.61l2.67-7.84H822l-5.39 14h-2.39l-5.22-14h2.67"/><path id="o" d="M824.35 3078.89h2.33V3093h-2.33zm-.35-4.26c0-.9.61-1.63 1.51-1.63.91 0 1.49.73 1.49 1.63 0 .91-.58 1.66-1.51 1.66h-.03c-.88 0-1.46-.75-1.46-1.66z"/><path id="p" d="M830.6 3090.04c.77.47 2.08 1 3.33 1 1.79 0 2.65-.92 2.65-2.13 0-1.25-.71-1.93-2.54-2.64-2.5-.95-3.67-2.34-3.67-4.06 0-2.31 1.82-4.21 4.76-4.21 1.39 0 2.62.39 3.36.89l-.6 1.87a5.45 5.45 0 0 0-2.82-.83c-1.48 0-2.28.89-2.28 1.95 0 1.22.8 1.75 2.59 2.46 2.37.92 3.62 2.17 3.62 4.33 0 2.55-1.91 4.33-5.13 4.33-1.51 0-2.9-.42-3.87-1.01l.6-1.95"/><path id="q" d="M847.93 3091.04c-2.52 0-4.3-2.37-4.3-5.51 0-2.73 1.34-5.57 4.38-5.57 3.08 0 4.3 3.05 4.3 5.48 0 3.26-1.87 5.6-4.35 5.6zm-.06 1.96h.03c3.4 0 7.1-2.31 7.1-7.65 0-4.36-2.78-7.35-6.9-7.35-3.93 0-7.1 2.82-7.1 7.62 0 4.53 3.02 7.38 6.87 7.38z"/><path id="r" d="M857.11 3082.76c0-1.68-.02-3.12-.11-4.44h2.21l.11 2.79h.09c.63-1.91 2.17-3.11 3.86-3.11.26 0 .46.03.69.09v2.4c-.29-.02-.55-.05-.89-.05-1.77 0-3.03 1.38-3.38 3.28-.06.38-.08.8-.08 1.24v7.57h-2.52l.02-9.77"/><path id="s" d="M868.59 3078.53a.78.78 0 0 1 .27-.03c.28 0 .44.14.44.41 0 .27-.17.43-.47.43h-.24zm-.59-.46v2.93h.59v-1.17h.18c.25 0 .36.1.44.48.07.36.14.61.18.69h.61c-.05-.12-.13-.5-.21-.84-.07-.28-.17-.47-.36-.56v-.01a.78.78 0 0 0 .47-.73.79.79 0 0 0-.25-.62c-.18-.17-.46-.24-.85-.24-.32 0-.61.03-.8.07z"/><path id="t" d="M866.65 3080a2.35 2.35 0 1 1 4.7 0 2.35 2.35 0 0 1-4.7 0zm2.35 3a3 3 0 0 0 3-3 3 3 0 0 0-3-3 3 3 0 0 0-3 3 3 3 0 0 0 3 3z"/></defs><g transform="translate(-682 -3067)"><use fill="#d8272d" xlink:href="#a"/><use fill="#0a9c4c" xlink:href="#b"/><use fill="#1c1b19" xlink:href="#c"/><use fill="#1c1b19" xlink:href="#d"/><use fill="#1c1b19" xlink:href="#e"/><use fill="#fbdc9b" xlink:href="#f"/><use fill="#fff" fill-opacity="0" stroke="#1c1b19" stroke-miterlimit="50" xlink:href="#g"/><use fill="#0b0b09" xlink:href="#h"/><use fill="#0b0b09" xlink:href="#i"/><use fill="#0b0b09" xlink:href="#j"/><g><use fill="#0b0b09" xlink:href="#k"/></g><g><use fill="#0b0b09" xlink:href="#l"/></g><g><use fill="#0b0b09" xlink:href="#m"/></g><g><use fill="#0b0b09" xlink:href="#n"/></g><g><use fill="#0b0b09" xlink:href="#o"/></g><g><use fill="#0b0b09" xlink:href="#p"/></g><g><use fill="#0b0b09" xlink:href="#q"/></g><g><use fill="#0b0b09" xlink:href="#r"/></g><g><use fill="#0b0b09" xlink:href="#s"/></g><g><use fill="#0b0b09" xlink:href="#t"/></g></g></svg>